<svg width="54" height="19" viewBox="0 0 54 19" fill="none" xmlns="http://www.w3.org/2000/svg">
<path d="M6.9993 15.189C5.6693 15.189 4.5003 14.881 3.4923 14.265C2.4843 13.635 1.6863 12.767 1.0983 11.661C0.524304 10.541 0.237304 9.253 0.237304 7.797C0.237304 6.593 0.433304 5.543 0.825304 4.647C1.2173 3.751 1.7423 3.002 2.4003 2.4C3.0723 1.798 3.8283 1.35 4.6683 1.056C5.5083 0.761999 6.3833 0.614999 7.2933 0.614999C8.1473 0.614999 8.9453 0.705999 9.6873 0.887999C10.4293 1.07 11.1783 1.343 11.9343 1.707C11.8363 2.197 11.7733 2.722 11.7453 3.282C11.7173 3.828 11.7033 4.388 11.7033 4.962C11.5213 5.032 11.3253 5.088 11.1153 5.13C10.9053 5.158 10.6813 5.172 10.4433 5.172C10.4153 4.22 10.2753 3.485 10.0233 2.967C9.7713 2.449 9.4213 2.092 8.9733 1.896C8.5393 1.7 8.0283 1.602 7.4403 1.602C6.6143 1.602 5.9003 1.763 5.2983 2.085C4.7103 2.393 4.2273 2.813 3.8493 3.345C3.4853 3.863 3.2123 4.458 3.0303 5.13C2.8623 5.802 2.7783 6.502 2.7783 7.23C2.7783 8.462 2.9743 9.575 3.3663 10.569C3.7723 11.563 4.3603 12.354 5.1303 12.942C5.9003 13.516 6.8383 13.803 7.9443 13.803C8.5883 13.803 9.2463 13.698 9.9183 13.488C10.5903 13.278 11.2133 12.991 11.7873 12.627C11.8853 12.697 11.9693 12.809 12.0393 12.963C12.1233 13.103 12.1793 13.229 12.2073 13.341C11.4233 13.957 10.6253 14.419 9.8133 14.727C9.0153 15.035 8.0773 15.189 6.9993 15.189ZM27.9655 15.063C27.7695 15.049 27.5105 15.035 27.1885 15.021C26.8665 15.021 26.5305 15.014 26.1805 15C25.8445 15 25.5155 15 25.1935 15C24.8855 15 24.5565 15 24.2065 15C23.8705 15.014 23.5485 15.021 23.2405 15.021C22.9325 15.021 22.6735 15.028 22.4635 15.042C22.4635 14.888 22.4705 14.727 22.4845 14.559C22.4985 14.377 22.5265 14.209 22.5685 14.055C22.9185 14.013 23.1705 13.936 23.3245 13.824C23.4925 13.712 23.5345 13.502 23.4505 13.194C23.3805 12.872 23.1495 12.389 22.7575 11.745C22.2955 10.947 21.8055 10.135 21.2875 9.309C20.7695 8.469 20.2375 7.629 19.6915 6.789C19.1595 5.935 18.6135 5.088 18.0535 4.248C17.6895 3.688 17.3955 3.254 17.1715 2.946C16.9475 2.624 16.7655 2.386 16.6255 2.232C16.4855 2.078 16.3455 1.973 16.2055 1.917C16.0795 1.861 15.9325 1.812 15.7645 1.77C15.6945 1.588 15.6525 1.413 15.6385 1.245C15.6245 1.077 15.6175 0.908999 15.6175 0.741C15.8695 0.754999 16.1565 0.768999 16.4785 0.782999C16.8145 0.782999 17.1575 0.789999 17.5075 0.803999C17.8575 0.803999 18.1725 0.803999 18.4525 0.803999C18.9005 0.803999 19.3695 0.803999 19.8595 0.803999C20.3495 0.789999 20.7555 0.775999 21.0775 0.761999C21.0775 0.915999 21.0705 1.077 21.0565 1.245C21.0425 1.413 21.0215 1.581 20.9935 1.749C20.6155 1.819 20.3425 1.924 20.1745 2.064C20.0205 2.204 19.9855 2.428 20.0695 2.736C20.1535 3.03 20.3635 3.443 20.6995 3.975C21.2595 4.815 21.8055 5.662 22.3375 6.516C22.8835 7.356 23.4085 8.189 23.9125 9.015C24.4305 9.841 24.9205 10.646 25.3825 11.43C25.7045 11.962 25.9775 12.396 26.2015 12.732C26.4395 13.054 26.6425 13.306 26.8105 13.488C26.9785 13.67 27.1395 13.803 27.2935 13.887C27.4615 13.957 27.6365 14.013 27.8185 14.055C27.8745 14.195 27.9095 14.356 27.9235 14.538C27.9515 14.706 27.9655 14.881 27.9655 15.063ZM15.3025 15.063C15.3025 14.923 15.3095 14.748 15.3235 14.538C15.3375 14.328 15.3725 14.153 15.4285 14.013C15.8065 13.915 16.2055 13.705 16.6255 13.383C17.0455 13.061 17.5215 12.529 18.0535 11.787L20.7205 7.986L21.4345 8.805L19.5445 11.598C19.1805 12.144 18.9425 12.585 18.8305 12.921C18.7185 13.243 18.7395 13.495 18.8935 13.677C19.0475 13.845 19.3485 13.971 19.7965 14.055C19.8385 14.209 19.8665 14.377 19.8805 14.559C19.9085 14.727 19.9225 14.895 19.9225 15.063C19.5725 15.035 19.1875 15.014 18.7675 15C18.3475 15 17.9415 15 17.5495 15C17.2835 15 17.0105 15 16.7305 15C16.4645 15.014 16.2055 15.021 15.9535 15.021C15.7155 15.035 15.4985 15.049 15.3025 15.063ZM22.5265 8.112L21.7915 7.251L23.7235 4.206C24.2975 3.31 24.5495 2.701 24.4795 2.379C24.4235 2.043 24.0875 1.833 23.4715 1.749C23.4295 1.595 23.4015 1.427 23.3875 1.245C23.3735 1.049 23.3665 0.880999 23.3665 0.741C23.6045 0.754999 23.8495 0.768999 24.1015 0.782999C24.3535 0.782999 24.6055 0.789999 24.8575 0.803999C25.1235 0.803999 25.3615 0.803999 25.5715 0.803999C25.7815 0.803999 26.0195 0.803999 26.2855 0.803999C26.5515 0.789999 26.8105 0.782999 27.0625 0.782999C27.3145 0.768999 27.5245 0.754999 27.6925 0.741C27.6925 0.908999 27.6855 1.077 27.6715 1.245C27.6715 1.413 27.6505 1.581 27.6085 1.749C27.3565 1.819 27.1185 1.924 26.8945 2.064C26.6845 2.19 26.4395 2.414 26.1595 2.736C25.8935 3.044 25.5505 3.52 25.1305 4.164L22.5265 8.112ZM32.7484 3.66C32.7484 3.156 32.7064 2.778 32.6224 2.526C32.5384 2.26 32.3914 2.071 32.1814 1.959C31.9854 1.847 31.6984 1.777 31.3204 1.749C31.2644 1.623 31.2294 1.476 31.2154 1.308C31.2014 1.126 31.1944 0.937 31.1944 0.741C31.4604 0.754999 31.7404 0.768999 32.0344 0.782999C32.3424 0.782999 32.6574 0.789999 32.9794 0.803999C33.3154 0.803999 33.6304 0.803999 33.9244 0.803999C34.2324 0.803999 34.5404 0.803999 34.8484 0.803999C35.1564 0.789999 35.4574 0.782999 35.7514 0.782999C36.0454 0.768999 36.3324 0.754999 36.6124 0.741C36.6124 0.937 36.6054 1.126 36.5914 1.308C36.5774 1.476 36.5494 1.623 36.5074 1.749C36.1434 1.777 35.8494 1.847 35.6254 1.959C35.4154 2.071 35.2684 2.26 35.1844 2.526C35.1004 2.778 35.0584 3.156 35.0584 3.66V12.144C35.0584 12.634 35.1004 13.012 35.1844 13.278C35.2684 13.544 35.4154 13.733 35.6254 13.845C35.8494 13.957 36.1434 14.027 36.5074 14.055C36.5494 14.167 36.5774 14.314 36.5914 14.496C36.6054 14.664 36.6124 14.853 36.6124 15.063C36.2204 15.035 35.7934 15.014 35.3314 15C34.8694 15 34.4144 15 33.9664 15C33.5044 15 33.0214 15 32.5174 15C32.0134 15.014 31.5724 15.035 31.1944 15.063C31.1944 14.853 31.2014 14.664 31.2154 14.496C31.2434 14.314 31.2784 14.167 31.3204 14.055C31.6984 14.027 31.9854 13.957 32.1814 13.845C32.3914 13.733 32.5384 13.544 32.6224 13.278C32.7064 13.012 32.7484 12.634 32.7484 12.144V3.66ZM40.1888 15V14.055C40.6928 14.055 41.1338 13.845 41.5118 13.425C41.9038 13.005 42.2398 12.438 42.5198 11.724C42.8138 11.01 43.0518 10.205 43.2338 9.309C43.4298 8.413 43.5768 7.482 43.6748 6.516C43.7868 5.536 43.8708 4.598 43.9268 3.702C43.9548 3.17 43.9408 2.778 43.8848 2.526C43.8428 2.26 43.7098 2.078 43.4858 1.98C43.2618 1.882 42.9048 1.805 42.4148 1.749C42.3588 1.623 42.3238 1.476 42.3098 1.308C42.2958 1.126 42.2888 0.937 42.2888 0.741C42.7508 0.754999 43.4018 0.768999 44.2418 0.782999C45.0818 0.796999 46.2158 0.803999 47.6438 0.803999C48.6098 0.803999 49.3938 0.803999 49.9958 0.803999C50.5978 0.789999 51.0878 0.782999 51.4658 0.782999C51.8438 0.768999 52.1658 0.754999 52.4318 0.741C52.4318 0.937 52.4248 1.126 52.4108 1.308C52.3968 1.476 52.3618 1.623 52.3058 1.749C51.9418 1.777 51.6478 1.847 51.4238 1.959C51.2138 2.071 51.0668 2.26 50.9828 2.526C50.9128 2.778 50.8778 3.156 50.8778 3.66V12.144C50.8778 12.662 50.9128 13.061 50.9828 13.341C51.0668 13.621 51.2138 13.81 51.4238 13.908C51.6478 14.006 51.9418 14.055 52.3058 14.055V15H40.1888ZM42.8348 13.992H46.6988C47.2028 13.992 47.5878 13.95 47.8538 13.866C48.1198 13.768 48.3018 13.586 48.3998 13.32C48.4978 13.04 48.5468 12.627 48.5468 12.081V3.66C48.5468 3.198 48.5188 2.848 48.4628 2.61C48.4208 2.358 48.3018 2.169 48.1058 2.043C48.0078 1.973 47.8468 1.917 47.6228 1.875C47.4128 1.833 47.1538 1.812 46.8458 1.812C46.4538 1.812 46.1458 1.84 45.9218 1.896C45.7118 1.938 45.5648 1.994 45.4808 2.064C45.2988 2.204 45.1868 2.414 45.1448 2.694C45.1168 2.974 45.0888 3.296 45.0608 3.66C44.9908 4.92 44.8928 6.096 44.7668 7.188C44.6548 8.266 44.5148 9.246 44.3468 10.128C44.1788 11.01 43.9688 11.78 43.7168 12.438C43.4788 13.082 43.1848 13.6 42.8348 13.992ZM39.8108 18.528C39.8108 17.772 39.7828 17.086 39.7268 16.47C39.6848 15.868 39.6218 15.357 39.5378 14.937C39.5378 14.559 39.6428 14.265 39.8528 14.055H41.3438L41.7638 14.433C41.6238 15.007 41.5188 15.651 41.4488 16.365C41.3788 17.093 41.3508 17.814 41.3648 18.528C41.1268 18.598 40.8608 18.633 40.5668 18.633C40.2868 18.633 40.0348 18.598 39.8108 18.528ZM51.6968 18.528C51.7108 17.814 51.6828 17.093 51.6128 16.365C51.5428 15.651 51.4378 15.007 51.2978 14.433L51.7178 14.055H53.2088C53.4188 14.265 53.5238 14.559 53.5238 14.937C53.4398 15.357 53.3698 15.868 53.3138 16.47C53.2718 17.086 53.2508 17.772 53.2508 18.528C53.0408 18.598 52.7888 18.633 52.4948 18.633C52.2148 18.633 51.9488 18.598 51.6968 18.528Z" fill="#DC780B"/>
</svg>
